# xmcd
#
# Track frame offsets: 
#        150
#        22242
#        40107
#        53857
#        67685
#        87352
#
# Disc length: 1393 seconds
#
# Revision: 0
# Processed by: cddbd v1.5.2PL0 Copyright (c) Steve Scherf et al.
# Submitted via: ExactAudioCopyFreeDBPlugin 1.0
#
DISCID=46056f06
DTITLE=Galileo Galilei - Baby,It's Cold Outside
DYEAR=2012
DGENRE=JPop
TTITLE0=Sex and Summer 
TTITLE1=時計塔 
TTITLE2=コウモリかモグラ 
TTITLE3=Chill Boy 
TTITLE4=リジー 
TTITLE5=夢に唄えば 
EXTD=
EXTT0=
EXTT1=
EXTT2=
EXTT3=
EXTT4=
EXTT5=
PLAYORDER=
